<?xml version="1.0" encoding="UTF-8"?><svg id="a" xmlns="http://www.w3.org/2000/svg" width="499.55" height="170.54" viewBox="0 0 499.55 170.54"><g><path d="M86.99,39.57h-1.15v-4.15c0-13.84-14.77-33.92-26.77-33.92h-1.73V83.76c0,4.27,2.31,7.04,5.08,7.04h7.15v1.5H16.27v-1.5h9c2.77,0,4.85-3.12,4.85-6.81V1.5h-1.38C18.46,1.5,1.27,20.31,1.27,36.11v3.46H0V0H86.99V39.57Z" fill="#e57106"/><path d="M148.6,60h-32.54c0,1.27-.12,2.54-.12,3.81,0,23.31,3.69,28.27,11.65,28.27,12.58,0,22.15-11.65,22.15-22.61h1.61c0,11.08-8.88,24.58-26.31,24.58-19.84,0-33.11-12.81-33.11-32.19s15-33.46,31.5-33.46c18.58,0,28.27,14.77,28.27,28.84,0,2.31-1.04,2.77-3.12,2.77Zm-24.57-30c-5.31,0-7.62,7.27-7.96,28.38h10.61c1.5,0,2.77,.35,2.77-2.08,0-21.11,.35-26.31-5.42-26.31Z" fill="#e57106"/><path d="M227.74,92.3h-30.69v-10.5c-2.19,7.5-6.81,11.65-15.69,11.65-12.92,0-22.38-14.77-22.38-31.96s11.54-33.92,24.57-33.92c7.61,0,11.54,4.15,13.5,11.54V8.65c0-4.85-3.69-7.15-6.23-7.15h-4.5V.12h34.04V87.11c0,3,1.62,3.81,4.27,3.81h3.12v1.39Zm-38.77-61.38c-4.5,0-5.31,6.69-5.31,31.61s-.35,27.81,3.92,27.81c3.58,0,9.46-5.88,9.46-30.23,0-20.88-3.92-29.19-8.08-29.19Z" fill="#e57106"/><path d="M288.43,60h-32.54c0,1.27-.12,2.54-.12,3.81,0,23.31,3.69,28.27,11.65,28.27,12.58,0,22.15-11.65,22.15-22.61h1.61c0,11.08-8.88,24.58-26.31,24.58-19.84,0-33.11-12.81-33.11-32.19s15-33.46,31.5-33.46c18.58,0,28.27,14.77,28.27,28.84,0,2.31-1.04,2.77-3.12,2.77Zm-24.57-30c-5.31,0-7.62,7.27-7.96,28.38h10.61c1.5,0,2.77,.35,2.77-2.08,0-21.11,.35-26.31-5.42-26.31Z" fill="#e57106"/><path d="M329.84,94.61c-10.15,0-17.19-5.08-22.96-5.08-4.96,0-6.23,2.54-6.58,3.46h-1.04v-29.07h.92c1.5,7.61,13.27,29.31,28.27,29.31,6.11,0,9.81-3,9.81-9,0-8.19-9.35-10.27-18.81-13.73-9.58-3.46-19.15-8.31-19.15-22.27,0-12.69,12.81-21.11,26.07-21.11,7.15,0,13.85,3.69,17.08,3.69s3.92-1.96,3.92-2.65h1.15v21.58h-.81c-1.5-7.61-9.11-21.23-21-21.23-5.65,0-8.77,3.58-8.77,7.85,0,8.65,8.42,10.61,17.31,13.38,9.69,3,19.73,7.04,19.73,21.92,0,17.19-15.81,22.96-25.15,22.96Z" fill="#e57106"/><path d="M422.83,67.84c0,13.27-7.15,26.54-25.15,26.54-20.08,0-35.42-13.5-35.42-33.23,0-18,15.69-32.88,37.04-32.88,13.96,0,22.73,9.23,22.73,18.69,0,8.65-6.23,13.61-13.38,13.61-8.08,0-13.96-5.77-13.96-12.58s5.19-12.35,12.58-12.35c3.23,0,5.08,1.15,5.42,1.15s.35-.46,.35-.92c0-1.27-4.38-6.35-12.69-6.35-7.04,0-12.69,6.23-12.69,33.69,0,23.42,4.27,29.42,12.69,29.42,12.23,0,21.23-10.85,21.23-24.92l1.27,.12Z" fill="#e57106"/><path d="M465.05,94.49c-19.04,0-34.5-15-34.5-33.46s15.46-33.34,34.5-33.34,34.5,15,34.5,33.34-15.46,33.46-34.5,33.46Zm.12-65.07c-6.92,0-8.19,5.77-8.19,32.07s1.96,31.27,8.19,31.27,8.19-5.31,8.19-30.92c0-22.15,.35-32.42-8.19-32.42Z" fill="#e57106"/></g><g><path d="M316.38,131.99h-2.27c-1.62,0-3.57,1.17-3.57,3.63v21.94h-.78v-1.1c0-1.43-1.17-4.09-5.84-4.09-8.18,0-6.88,6.23-18.76,6.23-12.91,0-24.99-12.2-24.99-25.83,0-16.03,14.99-28.29,28.62-28.29,6.49,0,9.15,3.7,13.76,3.7,3.5,0,4.67-2.4,4.67-3.24h.58l-.06,20.9-.52-.07c-.78-5-7.07-20.38-18.3-20.38-7.66,0-11.75,9.8-11.75,27.58s3.11,24.73,9.54,24.73c5.78,0,8.7-2.92,8.7-9.35v-12.72c0-2.47-2.14-3.63-4.41-3.63h-3.5v-.84h28.88v.84Z" fill="#e57106"/><path d="M344.09,136.08c-2.99,0-6.3-2.47-6.3-6.04,0-3.89,2.86-6.49,6.04-6.49,2.34,0,3.37,.97,3.76,.97,.13,0,.32-.13,.32-.32,0-1.04-1.88-2.66-4.61-2.66s-7.07,2.14-7.07,9.41v22.91c0,2.08,.84,2.92,1.88,2.92h2.47v.78h-23.3v-.78h2.21c1.88,0,3.31-1.04,3.31-2.79v-27.71c0-1.75-.91-2.99-2.4-2.99h-2.21v-.84h17.33l.33,4.02c.78-1.69,2.92-5.65,7.66-5.65,3.89,0,7.2,3.24,7.2,7.92s-3.24,7.33-6.62,7.33Z" fill="#e57106"/><path d="M371.22,158.79c-10.71,0-19.4-8.44-19.4-18.82s8.7-18.75,19.4-18.75,19.4,8.44,19.4,18.75-8.7,18.82-19.4,18.82Zm.07-36.6c-3.89,0-4.61,3.24-4.61,18.04s1.1,17.59,4.61,17.59,4.61-2.98,4.61-17.39c0-12.46,.2-18.24-4.61-18.24Z" fill="#e57106"/><path d="M434.82,157.56h-17.07v-4.67c-1.23,4.09-5.32,5.78-10.19,5.78-5.39,0-10.77-3.31-10.77-10.97v-21.93c0-1.69-.45-2.47-1.82-2.47h-2.47v-.84h17.2v28.62c0,3.76,1.56,4.87,3.18,4.87,2.53,0,4.87-3.37,4.87-8.31v-22.13c0-1.75-1.17-2.21-1.75-2.21h-1.3v-.84h15.71v31.54c0,1.56,.71,2.79,2.21,2.79h2.21v.78Z" fill="#e57106"/><path d="M461.49,158.21c-4.74,0-7.14-2.4-8.31-6.81v15.25c0,1.69,.78,3.05,2.34,3.05h1.88v.84h-22.84v-.84h1.95c1.88,0,3.12-1.3,3.12-3.05v-40.5c0-1.75-.91-2.86-2.66-2.86h-1.75v-.84h17.98v5.52c1.04-4.35,3.7-6.81,8.11-6.81,8.31,0,13.37,9.47,13.37,19.08s-5.91,17.98-13.17,17.98Zm-3.76-34.66c-2.27,0-4.48,4.15-4.48,15.9,0,13.69,3.24,17,5.32,17,2.4,0,2.99-4.09,2.99-16.74s-1.23-16.16-3.83-16.16Z" fill="#e57106"/></g></svg>